<svg version="1.1" viewBox="0.0 0.0 960.0 540.0" fill="none" stroke="none" stroke-linecap="square" stroke-miterlimit="10" xmlns:xlink="http://www.w3.org/1999/xlink" xmlns="http://www.w3.org/2000/svg"><clipPath id="g8600b534cb_0_11.0"><path d="m0 0l960.0 0l0 540.0l-960.0 0l0 -540.0z" clip-rule="nonzero"/></clipPath><g clip-path="url(#g8600b534cb_0_11.0)"><path fill="#0c1d3b" d="m0 0l960.0 0l0 540.0l-960.0 0z" fill-rule="evenodd"/><path fill="#000000" fill-opacity="0.0" d="m19.031496 213.21523l480.50394 0l0 102.3622l-480.50394 0z" fill-rule="evenodd"/><path fill="#ec6d2d" d="m66.88771 291.73743l-5.749996 0l-17.28125 -33.28125l-0.09375 33.28125l-5.71875 0l0 -44.546875l5.75 0l17.28125 33.234375l0.09375 -33.234375l5.718746 0l0 44.546875zm33.021744 -11.265625q0 -2.046875 -0.9375 -3.453125q-0.9375 -1.40625 -2.40625 -2.359375q-1.46875 -0.96875 -3.234375 -1.609375q-1.75 -0.640625 -3.375 -1.171875q-2.34375 -0.765625 -4.78125 -1.828125q-2.4375 -1.078125 -4.4375 -2.625q-2.0 -1.5625 -3.28125 -3.6875q-1.265625 -2.140625 -1.265625 -5.015625q0 -2.875 1.265625 -5.140625q1.28125 -2.265625 3.328125 -3.8125q2.046875 -1.5625 4.640625 -2.375q2.609375 -0.8125 5.234375 -0.8125q2.90625 0 5.59375 0.96875q2.703125 0.953125 4.78125 2.703125q2.078125 1.75 3.328125 4.234375q1.265625 2.46875 1.328125 5.53125l-5.8125 0q-0.25 -1.9375 -0.953125 -3.5q-0.703125 -1.578125 -1.875 -2.703125q-1.15625 -1.140625 -2.765625 -1.765625q-1.59375 -0.640625 -3.625 -0.640625q-1.609375 0 -3.15625 0.46875q-1.546875 0.453125 -2.765625 1.375q-1.203125 0.921875 -1.921875 2.265625q-0.71875 1.34375 -0.71875 3.109375q0.03125 1.9375 0.96875 3.265625q0.953125 1.328125 2.40625 2.25q1.46875 0.921875 3.15625 1.53125q1.703125 0.609375 3.203125 1.0625q1.65625 0.53125 3.328125 1.1875q1.6875 0.65625 3.25 1.515625q1.5625 0.84375 2.90625 1.921875q1.34375 1.0625 2.34375 2.4375q1.015625 1.359375 1.578125 3.0q0.578125 1.625 0.578125 3.625q0 2.984375 -1.34375 5.21875q-1.328125 2.234375 -3.4375 3.71875q-2.109375 1.484375 -4.78125 2.234375q-2.65625 0.75 -5.3125 0.75q-2.96875 0 -5.8125 -0.90625q-2.84375 -0.921875 -5.09375 -2.65625q-2.25 -1.734375 -3.65625 -4.21875q-1.40625 -2.5 -1.5 -5.671875l5.78125 0q0.28125 2.078125 1.125 3.6875q0.859375 1.59375 2.203125 2.71875q1.359375 1.109375 3.109375 1.6875q1.765625 0.5625 3.84375 0.5625q1.65625 0 3.25 -0.40625q1.609375 -0.421875 2.859375 -1.296875q1.265625 -0.875 2.0625 -2.203125q0.796875 -1.328125 0.796875 -3.171875zm58.059113 -6.59375l0 17.859375l-5.65625 0l0 -44.546875l14.4375 0q3.0 0.0625 5.671875 0.953125q2.6875 0.890625 4.703125 2.578125q2.015625 1.671875 3.1875 4.15625q1.1875 2.46875 1.1875 5.6875q0 3.203125 -1.1875 5.671875q-1.171875 2.46875 -3.1875 4.15625q-2.015625 1.671875 -4.703125 2.5625q-2.671875 0.890625 -5.671875 0.921875l-8.78125 0zm0 -4.65625l8.78125 0q1.953125 -0.03125 3.609375 -0.625q1.65625 -0.59375 2.875 -1.6875q1.234375 -1.109375 1.921875 -2.6875q0.6875 -1.578125 0.6875 -3.59375q0 -2.03125 -0.6875 -3.640625q-0.6875 -1.625 -1.90625 -2.75q-1.203125 -1.140625 -2.875 -1.75q-1.671875 -0.609375 -3.625 -0.640625l-8.78125 0l0 17.375zm29.834244 5.65625q0 -3.578125 1.03125 -6.65625q1.046875 -3.078125 2.984375 -5.328125q1.953125 -2.265625 4.734375 -3.5625q2.78125 -1.3125 6.265625 -1.3125q3.515625 0 6.3125 1.3125q2.8125 1.296875 4.75 3.5625q1.9375 2.25 2.984375 5.328125q1.046875 3.078125 1.046875 6.65625l0 0.671875q0 3.578125 -1.046875 6.640625q-1.046875 3.0625 -2.984375 5.328125q-1.9375 2.265625 -4.734375 3.546875q-2.78125 1.28125 -6.265625 1.28125q-3.515625 0 -6.3125 -1.28125q-2.796875 -1.28125 -4.75 -3.546875q-1.9375 -2.265625 -2.984375 -5.328125q-1.03125 -3.0625 -1.03125 -6.640625l0 -0.671875zm5.65625 0.671875q0 2.453125 0.578125 4.671875q0.59375 2.21875 1.765625 3.90625q1.171875 1.671875 2.9375 2.65625q1.78125 0.96875 4.140625 0.96875q2.328125 0 4.078125 -0.96875q1.765625 -0.984375 2.9375 -2.65625q1.1875 -1.6875 1.765625 -3.90625q0.578125 -2.21875 0.578125 -4.671875l0 -0.671875q0 -2.421875 -0.59375 -4.625q-0.59375 -2.21875 -1.78125 -3.90625q-1.171875 -1.6875 -2.9375 -2.671875q-1.75 -1.0 -4.109375 -1.0q-2.359375 0 -4.109375 1.0q-1.734375 0.984375 -2.90625 2.671875q-1.171875 1.6875 -1.765625 3.90625q-0.578125 2.203125 -0.578125 4.625l0 0.671875zm55.22487 -17.53125q0.796875 0 1.640625 0.046875q0.859375 0.046875 1.640625 0.15625q0.78125 0.109375 1.4375 0.265625q0.671875 0.140625 1.09375 0.328125l-0.765625 5.546875q-1.65625 -0.375 -3.140625 -0.53125q-1.484375 -0.171875 -3.09375 -0.171875q-3.984375 0 -6.453125 1.8125q-2.453125 1.796875 -3.625 5.03125l0 21.234375l-5.6875 0l0 -33.109375l5.390625 0l0.265625 5.265625q2.03125 -2.71875 4.859375 -4.296875q2.828125 -1.578125 6.4375 -1.578125zm29.303009 -7.40625l0 8.015625l12.609375 0l0 4.375l-12.609375 0l0 18.0q0 1.921875 0.484375 3.1875q0.5 1.25 1.359375 2.0q0.859375 0.75 1.96875 1.0625q1.125 0.296875 2.375 0.296875q0.921875 0 1.890625 -0.109375q0.984375 -0.109375 1.90625 -0.265625q0.9375 -0.15625 1.75 -0.3125q0.8125 -0.171875 1.328125 -0.296875l0.796875 4.015625q-0.703125 0.421875 -1.71875 0.75q-1.0 0.3125 -2.203125 0.53125q-1.1875 0.234375 -2.515625 0.359375q-1.328125 0.125 -2.640625 0.125q-2.203125 0 -4.125 -0.625q-1.90625 -0.625 -3.3125 -1.984375q-1.40625 -1.359375 -2.21875 -3.515625q-0.8125 -2.15625 -0.8125 -5.21875l0 -18.0l-8.6875 0l0 -4.375l8.6875 0l0 -8.015625l5.6875 0zm32.64673 41.125l0 -28.734375l-9.109375 0l0 -4.375l9.109375 0l0 -2.3125q0 -3.1875 0.9375 -5.578125q0.9375 -2.40625 2.625 -4.03125q1.703125 -1.625 4.078125 -2.453125q2.390625 -0.828125 5.328125 -0.828125q2.03125 0 3.9375 0.34375q1.90625 0.328125 3.9375 0.859375l-0.6875 4.671875q-1.25 -0.421875 -2.921875 -0.734375q-1.65625 -0.328125 -3.5625 -0.328125q-3.96875 0.03125 -5.984375 2.015625q-2.0 1.984375 -2.0 6.0625l0 2.3125l12.765625 0l0 4.375l-12.765625 0l0 28.734375l-5.6875 0zm27.599243 -16.859375q0 -3.578125 1.03125 -6.65625q1.046875 -3.078125 2.984375 -5.328125q1.953125 -2.265625 4.734375 -3.5625q2.78125 -1.3125 6.265625 -1.3125q3.515625 0 6.3125 1.3125q2.8125 1.296875 4.75 3.5625q1.9375 2.25 2.984375 5.328125q1.046875 3.078125 1.046875 6.65625l0 0.671875q0 3.578125 -1.046875 6.640625q-1.046875 3.0625 -2.984375 5.328125q-1.9375 2.265625 -4.734375 3.546875q-2.78125 1.28125 -6.265625 1.28125q-3.515625 0 -6.3125 -1.28125q-2.796875 -1.28125 -4.75 -3.546875q-1.9375 -2.265625 -2.984375 -5.328125q-1.03125 -3.0625 -1.03125 -6.640625l0 -0.671875zm5.65625 0.671875q0 2.453125 0.578125 4.671875q0.59375 2.21875 1.765625 3.90625q1.171875 1.671875 2.9375 2.65625q1.78125 0.96875 4.140625 0.96875q2.328125 0 4.078125 -0.96875q1.765625 -0.984375 2.9375 -2.65625q1.1875 -1.6875 1.765625 -3.90625q0.578125 -2.21875 0.578125 -4.671875l0 -0.671875q0 -2.421875 -0.59375 -4.625q-0.59375 -2.21875 -1.78125 -3.90625q-1.171875 -1.6875 -2.9375 -2.671875q-1.75 -1.0 -4.109375 -1.0q-2.359375 0 -4.109375 1.0q-1.734375 0.984375 -2.90625 2.671875q-1.171875 1.6875 -1.765625 3.90625q-0.578125 2.203125 -0.578125 4.625l0 0.671875zm34.412354 -30.8125l16.921875 0l0 42.109375l10.796875 0l0 4.890625l-27.71875 0l0 -4.890625l11.265625 0l0 -37.171875l-11.265625 0l0 -4.9375zm37.599854 13.890625l16.921875 0l0 28.21875l10.796875 0l0 4.890625l-27.71875 0l0 -4.890625l11.265625 0l0 -23.28125l-11.265625 0l0 -4.9375zm10.53125 -8.6875q0 -1.40625 0.84375 -2.359375q0.84375 -0.96875 2.546875 -0.96875q1.6875 0 2.546875 0.96875q0.859375 0.953125 0.859375 2.359375q0 1.375 -0.859375 2.296875q-0.859375 0.921875 -2.546875 0.921875q-1.703125 0 -2.546875 -0.921875q-0.84375 -0.921875 -0.84375 -2.296875zm24.599854 24.9375q0 -3.578125 1.03125 -6.65625q1.046875 -3.078125 2.984375 -5.328125q1.953125 -2.265625 4.734375 -3.5625q2.78125 -1.3125 6.265625 -1.3125q3.515625 0 6.3125 1.3125q2.8125 1.296875 4.75 3.5625q1.9375 2.25 2.984375 5.328125q1.046875 3.078125 1.046875 6.65625l0 0.671875q0 3.578125 -1.046875 6.640625q-1.046875 3.0625 -2.984375 5.328125q-1.9375 2.265625 -4.734375 3.546875q-2.78125 1.28125 -6.265625 1.28125q-3.515625 0 -6.3125 -1.28125q-2.796875 -1.28125 -4.75 -3.546875q-1.9375 -2.265625 -2.984375 -5.328125q-1.03125 -3.0625 -1.03125 -6.640625l0 -0.671875zm5.65625 0.671875q0 2.453125 0.578125 4.671875q0.59375 2.21875 1.765625 3.90625q1.171875 1.671875 2.9375 2.65625q1.78125 0.96875 4.140625 0.96875q2.328125 0 4.078125 -0.96875q1.765625 -0.984375 2.9375 -2.65625q1.1875 -1.6875 1.765625 -3.90625q0.578125 -2.21875 0.578125 -4.671875l0 -0.671875q0 -2.421875 -0.59375 -4.625q-0.59375 -2.21875 -1.78125 -3.90625q-1.171875 -1.6875 -2.9375 -2.671875q-1.75 -1.0 -4.109375 -1.0q-2.359375 0 -4.109375 1.0q-1.734375 0.984375 -2.90625 2.671875q-1.171875 1.6875 -1.765625 3.90625q-0.578125 2.203125 -0.578125 4.625l0 0.671875z" fill-rule="nonzero"/><path fill="#000000" fill-opacity="0.0" d="m508.93372 298.3937l0 0c1.7753601 0 3.2145996 -1.439209 3.2145996 -3.214569l-3.2145996 0c0.8876953 0 1.6072998 -0.7196045 1.6072998 -1.6072998c0 -0.8876648 -0.7196045 -1.6072693 -1.6072998 -1.6072693l3.2145996 0l0 -47.143707l0 0c0 -1.7753448 1.439209 -3.214569 3.2145386 -3.214569l38.57483 0c1.7753296 0 3.2145386 1.4392242 3.2145386 3.214569c0 1.7753601 -1.439209 3.214569 -3.2145386 3.214569l-3.2145996 0l0 47.143707c0 1.7753601 -1.439209 3.214569 -3.2145386 3.214569zm9.643738 -53.572845l0 0c0 1.7753601 -1.439209 3.214569 -3.2145996 3.214569c-0.8876953 0 -1.6072998 -0.7196045 -1.6072998 -1.6072845c0 -0.88768005 0.7196045 -1.6072845 1.6072998 -1.6072845z" fill-rule="evenodd"/><path fill="#000000" fill-opacity="0.0" d="m518.57745 244.82086l0 0c0 1.7753601 -1.439209 3.214569 -3.2145996 3.214569c-0.8876953 0 -1.6072998 -0.7196045 -1.6072998 -1.6072845c0 -0.88768005 0.7196045 -1.6072845 1.6072998 -1.6072845zm-6.429138 50.358276c0 1.7753601 -1.4392395 3.214569 -3.2145996 3.214569c-1.7753601 0 -3.214569 -1.439209 -3.214569 -3.214569c0 -1.7753601 1.439209 -3.214569 3.214569 -3.214569l0 0c0.8876953 0 1.6072998 0.7196045 1.6072998 1.6072693c0 0.8876953 -0.7196045 1.6072998 -1.6072998 1.6072998z" fill-rule="evenodd"/><path fill="#000000" fill-opacity="0.0" d="m512.1483 291.96457l0 -47.143707l0 0c0 -1.7753448 1.439209 -3.214569 3.2145386 -3.214569l38.57483 0c1.7753296 0 3.2145386 1.4392242 3.2145386 3.214569c0 1.7753601 -1.439209 3.214569 -3.2145386 3.214569l-3.2145996 0l0 47.143707c0 1.7753601 -1.439209 3.214569 -3.2145386 3.214569l-38.57483 0l0 0c-1.7753601 0 -3.214569 -1.439209 -3.214569 -3.214569c0 -1.7753601 1.439209 -3.214569 3.214569 -3.214569zm3.2145386 -50.358276l0 0c1.7753906 0 3.2145996 1.4392242 3.2145996 3.214569c0 1.7753601 -1.439209 3.214569 -3.2145996 3.214569c-0.8876953 0 -1.6072998 -0.7196045 -1.6072998 -1.6072845c0 -0.88768005 0.7196045 -1.6072845 1.6072998 -1.6072845l3.2145996 0m32.14563 3.214569l-35.36023 0m-6.429138 43.92914l0 0c0.8876953 0 1.6072998 0.7196045 1.6072998 1.6072693c0 0.8876953 -0.7196045 1.6072998 -1.6072998 1.6072998l3.2145996 0m-3.2145996 3.214569l0 0c1.7753601 0 3.2145996 -1.439209 3.2145996 -3.214569l0 -3.214569" fill-rule="evenodd"/><path fill="#000000" fill-opacity="0.2" d="m518.57745 244.82086l0 0c0 1.7753601 -1.439209 3.214569 -3.2145996 3.214569c-0.8876953 0 -1.6072998 -0.7196045 -1.6072998 -1.6072845c0 -0.88768005 0.7196045 -1.6072845 1.6072998 -1.6072845zm-6.429138 50.358276c0 1.7753601 -1.4392395 3.214569 -3.2145996 3.214569c-1.7753601 0 -3.214569 -1.439209 -3.214569 -3.214569c0 -1.7753601 1.439209 -3.214569 3.214569 -3.214569l0 0c0.8876953 0 1.6072998 0.7196045 1.6072998 1.6072693c0 0.8876953 -0.7196045 1.6072998 -1.6072998 1.6072998z" fill-rule="evenodd"/><path stroke="#ffffff" stroke-width="3.0" stroke-linejoin="round" stroke-linecap="butt" d="m512.1483 291.96457l0 -47.143707l0 0c0 -1.7753448 1.439209 -3.214569 3.2145386 -3.214569l38.57483 0c1.7753296 0 3.2145386 1.4392242 3.2145386 3.214569c0 1.7753601 -1.439209 3.214569 -3.2145386 3.214569l-3.2145996 0l0 47.143707c0 1.7753601 -1.439209 3.214569 -3.2145386 3.214569l-38.57483 0l0 0c-1.7753601 0 -3.214569 -1.439209 -3.214569 -3.214569c0 -1.7753601 1.439209 -3.214569 3.214569 -3.214569zm3.2145386 -50.358276l0 0c1.7753906 0 3.2145996 1.4392242 3.2145996 3.214569c0 1.7753601 -1.439209 3.214569 -3.2145996 3.214569c-0.8876953 0 -1.6072998 -0.7196045 -1.6072998 -1.6072845c0 -0.88768005 0.7196045 -1.6072845 1.6072998 -1.6072845l3.2145996 0m32.14563 3.214569l-35.36023 0m-6.429138 43.92914l0 0c0.8876953 0 1.6072998 0.7196045 1.6072998 1.6072693c0 0.8876953 -0.7196045 1.6072998 -1.6072998 1.6072998l3.2145996 0m-3.2145996 3.214569l0 0c1.7753601 0 3.2145996 -1.439209 3.2145996 -3.214569l0 -3.214569" fill-rule="evenodd"/></g></svg>