<svg version="1.1" viewBox="0.0 0.0 960.0 540.0" fill="none" stroke="none" stroke-linecap="square" stroke-miterlimit="10" xmlns:xlink="http://www.w3.org/1999/xlink" xmlns="http://www.w3.org/2000/svg"><clipPath id="p.0"><path d="m0 0l960.0 0l0 540.0l-960.0 0l0 -540.0z" clip-rule="nonzero"/></clipPath><g clip-path="url(#p.0)"><path fill="#0c1d3b" d="m0 0l960.0 0l0 540.0l-960.0 0z" fill-rule="evenodd"/><path fill="#000000" fill-opacity="0.0" d="m32.72441 180.48819l894.55115 0l0 179.02362l-894.55115 0z" fill-rule="evenodd"/><path fill="#ffffff" d="m337.83652 215.81244l6.515625 0l22.484375 35.71875l0.25 0l-0.25 -8.65625l0 -27.0625l5.328125 0l0 44.859375l-5.515625 0l-23.484375 -37.40625l-0.25 0l0.25 8.640625l0 28.765625l-5.328125 0l0 -44.859375zm39.34494 44.859375l0 0zm19.55185 -44.859375l5.328125 0l0 44.859375l-5.328125 0l0 -44.859375zm10.335144 44.859375l0 0zm39.345398 1.0q-6.515625 0 -11.84375 -3.0625q-5.328125 -3.078125 -8.375 -8.4375q-3.03125 -5.359375 -3.03125 -11.9375q0 -6.578125 3.03125 -11.921875q3.046875 -5.359375 8.375 -8.421875q5.328125 -3.078125 11.84375 -3.078125q5.015625 0 9.171875 1.875q4.171875 1.875 7.25 5.453125l-3.828125 3.6875q-2.5625 -3.0625 -5.609375 -4.5q-3.03125 -1.453125 -6.984375 -1.453125q-4.890625 0 -8.96875 2.296875q-4.0625 2.28125 -6.484375 6.453125q-2.40625 4.171875 -2.40625 9.609375q0 5.453125 2.40625 9.625q2.421875 4.171875 6.484375 6.453125q4.078125 2.28125 8.96875 2.28125q8.140625 0 13.84375 -6.703125l3.890625 3.765625q-3.078125 3.6875 -7.6875 5.859375q-4.59375 2.15625 -10.046875 2.15625zm20.365723 -1.0l0 0zm39.095398 1.0q-6.453125 0 -11.71875 -3.125q-5.265625 -3.140625 -8.28125 -8.53125q-3.0 -5.390625 -3.0 -11.78125q0 -6.390625 3.0 -11.765625q3.015625 -5.390625 8.28125 -8.515625q5.265625 -3.140625 11.71875 -3.140625q6.4531555 0 11.7187805 3.140625q5.265625 3.125 8.265625 8.515625q3.015625 5.375 3.015625 11.765625q0 6.390625 -3.015625 11.78125q-3.0 5.390625 -8.265625 8.53125q-5.265625 3.125 -11.7187805 3.125zm0 -5.078125q4.828125 0 8.8594055 -2.34375q4.046875 -2.34375 6.390625 -6.515625q2.359375 -4.171875 2.359375 -9.5q0 -5.3125 -2.359375 -9.484375q-2.34375 -4.171875 -6.390625 -6.515625q-4.0312805 -2.359375 -8.8594055 -2.359375q-4.828125 0 -8.875 2.359375q-4.03125 2.34375 -6.390625 6.515625q-2.34375 4.171875 -2.34375 9.484375q0 5.328125 2.34375 9.5q2.359375 4.171875 6.390625 6.515625q4.046875 2.34375 8.875 2.34375zm25.816193 4.078125l0 0zm19.551819 -44.859375l5.328125 0l0 39.78125l19.609375 0l0 5.078125l-24.9375 0l0 -44.859375zm26.876404 44.859375l0 0zm19.551819 -44.859375l25.9375 0l0 5.078125l-20.609375 0l0 14.84375l18.609375 0l0 5.015625l-18.609375 0l0 14.84375l20.609375 0l0 5.078125l-25.9375 0l0 -44.859375z" fill-rule="nonzero"/><path fill="#ffffff" d="m308.921 336.6718q-3.390625 0 -6.5625 -1.40625q-3.15625 -1.40625 -5.609375 -4.125q-2.4375 -2.734375 -3.5 -6.625l5.078125 -2.0625q1.0625 4.015625 3.9375 6.578125q2.890625 2.5625 6.78125 2.5625q3.875 0 6.5625 -2.09375q2.703125 -2.09375 2.703125 -5.734375q0 -3.125 -2.28125 -5.15625q-2.28125 -2.046875 -7.484375 -3.796875l-2.828125 -1.0q-4.75 -1.703125 -7.765625 -4.453125q-3.0 -2.765625 -3.0 -7.640625q0 -3.203125 1.75 -5.921875q1.75 -2.734375 4.875 -4.359375q3.140625 -1.625 7.03125 -1.625q3.875 0 6.75 1.4375q2.890625 1.4375 4.609375 3.515625q1.734375 2.0625 2.421875 4.0625l-4.953125 2.125q-0.6875 -2.3125 -2.921875 -4.1875q-2.21875 -1.890625 -5.84375 -1.890625q-3.453125 0 -5.90625 1.953125q-2.4375 1.9375 -2.4375 4.890625q0 2.625 2.0625 4.296875q2.078125 1.65625 6.28125 3.09375l2.9375 1.0q5.703125 2.0625 8.890625 5.171875q3.203125 3.09375 3.203125 8.421875q0 4.328125 -2.234375 7.28125q-2.21875 2.9375 -5.609375 4.3125q-3.375 1.375 -6.9375 1.375zm17.665894 -1.0l0 0zm33.704773 1.0q-4.828125 0 -8.59375 -2.21875q-3.75 -2.234375 -5.8125 -6.203125q-2.0625 -3.984375 -2.0625 -9.1875l0 -28.25l5.3125 0l0 28.5q0 5.453125 2.875 8.875q2.890625 3.40625 8.28125 3.40625q5.390625 0 8.296875 -3.40625q2.921875 -3.421875 2.921875 -8.875l0 -28.5l5.328125 0l0 28.25q0 5.203125 -1.984375 9.21875q-1.96875 4.0 -5.734375 6.203125q-3.75 2.1875 -8.828125 2.1875zm20.492615 -1.0l0 0zm19.551819 -44.859375l5.328125 0l0 39.78125l19.609375 0l0 5.078125l-24.9375 0l0 -44.859375zm26.876373 44.859375l0 0zm19.55185 -44.859375l5.328125 0l0 39.78125l19.609375 0l0 5.078125l-24.9375 0l0 -44.859375zm26.876343 44.859375l0 0zm19.55188 -44.859375l5.328125 0l0 44.859375l-5.328125 0l0 -44.859375zm10.335114 44.859375l0 0zm12.904602 -44.859375l5.890625 0l11.09375 32.515625l1.5 4.453125l0.25 0l1.5625 -4.453125l11.59375 -32.515625l5.890625 0l-16.40625 44.859375l-5.453125 0l-15.921875 -44.859375zm38.66101 44.859375l0 0zm30.640564 -44.859375l6.015625 0l17.046875 44.859375l-5.828125 0l-4.515625 -12.34375l-19.421875 0l-4.515625 12.34375l-5.828125 0l17.046875 -44.859375zm10.90625 27.5l-6.015625 -16.15625l-1.765625 -4.828125l-0.25 0l-1.75 4.828125l-6.015625 16.15625l15.796875 0zm13.08905 17.359375l0 0zm19.551819 -44.859375l6.515625 0l22.484375 35.71875l0.25 0l-0.25 -8.65625l0 -27.0625l5.328125 0l0 44.859375l-5.515625 0l-23.484375 -37.40625l-0.25 0l0.25 8.640625l0 28.765625l-5.328125 0l0 -44.859375z" fill-rule="nonzero"/></g></svg>