<svg version="1.1" viewBox="0.0 0.0 960.0 540.0" fill="none" stroke="none" stroke-linecap="square" stroke-miterlimit="10" xmlns:xlink="http://www.w3.org/1999/xlink" xmlns="http://www.w3.org/2000/svg"><clipPath id="p.0"><path d="m0 0l960.0 0l0 540.0l-960.0 0l0 -540.0z" clip-rule="nonzero"/></clipPath><g clip-path="url(#p.0)"><path fill="#0c1d3b" d="m0 0l960.0 0l0 540.0l-960.0 0z" fill-rule="evenodd"/><path fill="#000000" fill-opacity="0.0" d="m32.72441 180.48819l894.55115 0l0 179.02362l-894.55115 0z" fill-rule="evenodd"/><path fill="#ffffff" d="m371.09152 246.21681l4.984375 0l17.234375 27.35936l0.1875 0l-0.1875 -6.609375l0 -20.749985l4.078125 0l0 34.374985l-4.21875 0l-18.0 -28.656235l-0.1875 0l0.1875 6.6249847l0 22.03125l-4.078125 0l0 -34.374985zm30.14032 34.374985l0 0zm14.979767 -34.374985l4.078125 0l0 34.374985l-4.078125 0l0 -34.374985zm7.9162903 34.374985l0 0zm30.144745 0.765625q-5.0 0 -9.078125 -2.34375q-4.078125 -2.359375 -6.40625 -6.453125q-2.328125 -4.109375 -2.328125 -9.15625q0 -5.03125 2.328125 -9.14061q2.328125 -4.109375 6.40625 -6.453125q4.078125 -2.359375 9.078125 -2.359375q3.84375 0 7.03125 1.453125q3.1875 1.4375 5.546875 4.171875l-2.9375 2.828125q-1.96875 -2.359375 -4.296875 -3.453125q-2.328125 -1.109375 -5.34375 -1.109375q-3.75 0 -6.875 1.75q-3.109375 1.75 -4.96875 4.9531097q-1.84375 3.1875 -1.84375 7.359375q0 4.171875 1.84375 7.375q1.859375 3.1875 4.96875 4.9375q3.125 1.75 6.875 1.75q6.234375 0 10.609375 -5.125l2.96875 2.875q-2.34375 2.828125 -5.875 4.484375q-3.53125 1.65625 -7.703125 1.65625zm15.599335 -0.765625l0 0zm29.957245 0.765625q-4.953125 0 -8.984375 -2.390625q-4.03125 -2.40625 -6.34375 -6.53125q-2.296875 -4.125 -2.296875 -9.03125q0 -4.890625 2.296875 -9.01561q2.3125 -4.140625 6.34375 -6.53125q4.03125 -2.40625 8.984375 -2.40625q4.9375 0 8.96875 2.40625q4.03125 2.390625 6.328125 6.53125q2.3125 4.1249847 2.3125 9.01561q0 4.90625 -2.3125 9.03125q-2.296875 4.125 -6.328125 6.53125q-4.03125 2.390625 -8.96875 2.390625zm0 -3.890625q3.6875 0 6.78125 -1.796875q3.09375 -1.796875 4.890625 -4.984375q1.8125 -3.203125 1.8125 -7.28125q0 -4.078125 -1.8125 -7.265625q-1.796875 -3.1874847 -4.890625 -4.9843597q-3.09375 -1.8125 -6.78125 -1.8125q-3.703125 0 -6.796875 1.8125q-3.09375 1.796875 -4.90625 4.9843597q-1.796875 3.1875 -1.796875 7.265625q0 4.078125 1.796875 7.28125q1.8125 3.1875 4.90625 4.984375q3.09375 1.796875 6.796875 1.796875zm19.770874 3.125l0 0zm14.979736 -34.374985l4.078125 0l0 30.48436l15.015625 0l0 3.890625l-19.09375 0l0 -34.374985zm20.588318 34.374985l0 0zm14.979736 -34.374985l19.875 0l0 3.890625l-15.796875 0l0 11.374985l14.25 0l0 3.84375l-14.25 0l0 11.375l15.796875 0l0 3.890625l-19.875 0l0 -34.374985z" fill-rule="nonzero"/><path fill="#ffffff" d="m348.93323 339.35742q-2.59375 0 -5.015625 -1.078125q-2.421875 -1.078125 -4.296875 -3.15625q-1.875 -2.09375 -2.6875 -5.078125l3.890625 -1.578125q0.8125 3.0625 3.015625 5.03125q2.21875 1.96875 5.1875 1.96875q2.984375 0 5.046875 -1.609375q2.0625 -1.609375 2.0625 -4.390625q0 -2.390625 -1.75 -3.953125q-1.75 -1.5625 -5.734375 -2.90625l-2.171875 -0.765625q-3.640625 -1.296875 -5.953125 -3.40625q-2.296875 -2.109375 -2.296875 -5.859375q0 -2.453125 1.34375 -4.53125q1.34375 -2.09375 3.734375 -3.34375q2.40625 -1.25 5.390625 -1.25q2.96875 0 5.171875 1.109375q2.21875 1.109375 3.53125 2.6875q1.328125 1.578125 1.859375 3.125l-3.796875 1.625q-0.53125 -1.78125 -2.234375 -3.21875q-1.703125 -1.4375 -4.484375 -1.4375q-2.640625 0 -4.515625 1.5q-1.875 1.484375 -1.875 3.734375q0 2.015625 1.578125 3.296875q1.59375 1.265625 4.8125 2.359375l2.25 0.78125q4.375 1.578125 6.8125 3.953125q2.453125 2.375 2.453125 6.453125q0 3.3125 -1.703125 5.578125q-1.703125 2.25 -4.296875 3.3125q-2.59375 1.046875 -5.328125 1.046875zm13.538544 -0.765625l0 0zm25.81665 0.765625q-3.6875 0 -6.578125 -1.703125q-2.875 -1.703125 -4.453125 -4.75q-1.578125 -3.046875 -1.578125 -7.03125l0 -21.65625l4.078125 0l0 21.84375q0 4.171875 2.203125 6.796875q2.203125 2.609375 6.328125 2.609375q4.140625 0 6.359375 -2.609375q2.234375 -2.625 2.234375 -6.796875l0 -21.84375l4.078125 0l0 21.65625q0 3.984375 -1.515625 7.0625q-1.5 3.0625 -4.390625 4.75q-2.875 1.671875 -6.765625 1.671875zm15.70343 -0.765625l0 0zm14.979797 -34.375l4.078125 0l0 30.484375l15.015625 0l0 3.890625l-19.09375 0l0 -34.375zm20.588287 34.375l0 0zm14.979767 -34.375l4.078125 0l0 30.484375l15.015625 0l0 3.890625l-19.09375 0l0 -34.375zm20.588318 34.375l0 0zm14.979736 -34.375l4.078125 0l0 34.375l-4.078125 0l0 -34.375zm7.9162903 34.375l0 0zm9.887909 -34.375l4.5156555 0l8.5 24.921875l1.140625 3.40625l0.203125 0l1.1875 -3.40625l8.890625 -24.921875l4.5 0l-12.5625 34.375l-4.1875 0l-12.1875305 -34.375zm29.61618 34.375l0 0zm23.477295 -34.375l4.609375 0l13.046875 34.375l-4.46875 0l-3.453125 -9.453125l-14.875 0l-3.453125 9.453125l-4.46875 0l13.0625 -34.375zm8.34375 21.078125l-4.609375 -12.390625l-1.34375 -3.6875l-0.1875 0l-1.34375 3.6875l-4.609375 12.390625l12.09375 0zm10.035034 13.296875l0 0zm14.979797 -34.375l4.984375 0l17.234375 27.359375l0.1875 0l-0.1875 -6.609375l0 -20.75l4.078125 0l0 34.375l-4.21875 0l-18.0 -28.65625l-0.1875 0l0.1875 6.625l0 22.03125l-4.078125 0l0 -34.375z" fill-rule="nonzero"/><path fill="#000000" fill-opacity="0.0" d="m643.93964 231.1811l0 0c3.408142 0 6.676697 1.3538666 9.086609 3.763794c2.409912 2.409912 3.763794 5.678467 3.763794 9.086594l0 40.48819c0 7.0970764 5.753296 12.850403 12.850403 12.850403l0 0c-7.097107 0 -12.850403 5.753296 -12.850403 12.850372l0 40.48819c0 7.0970764 -5.753357 12.850403 -12.850403 12.850403z" fill-rule="evenodd"/><path fill="#000000" fill-opacity="0.0" d="m643.93964 231.1811l0 0c3.408142 0 6.676697 1.3538666 9.086609 3.763794c2.409912 2.409912 3.763794 5.678467 3.763794 9.086594l0 40.48819c0 7.0970764 5.753296 12.850403 12.850403 12.850403l0 0c-7.097107 0 -12.850403 5.753296 -12.850403 12.850372l0 40.48819c0 7.0970764 -5.753357 12.850403 -12.850403 12.850403" fill-rule="evenodd"/><path stroke="#ec6d2d" stroke-width="8.0" stroke-linejoin="round" stroke-linecap="butt" d="m643.93964 231.1811l0 0c3.408142 0 6.676697 1.3538666 9.086609 3.763794c2.409912 2.409912 3.763794 5.678467 3.763794 9.086594l0 40.48819c0 7.0970764 5.753296 12.850403 12.850403 12.850403l0 0c-7.097107 0 -12.850403 5.753296 -12.850403 12.850372l0 40.48819c0 7.0970764 -5.753357 12.850403 -12.850403 12.850403" fill-rule="evenodd"/><path fill="#000000" fill-opacity="0.0" d="m311.77167 363.55905c-7.0970764 0 -12.850403 -5.7533264 -12.850403 -12.850403l0 -40.001038c0 -7.0970764 -5.7533264 -12.850372 -12.850403 -12.850372l0 0c7.0970764 0 12.850403 -5.7533264 12.850403 -12.850403l0 -40.97534l0 0c0 -7.0970764 5.7533264 -12.850388 12.850403 -12.850388z" fill-rule="evenodd"/><path fill="#000000" fill-opacity="0.0" d="m311.77167 363.55905c-7.0970764 0 -12.850403 -5.7533264 -12.850403 -12.850403l0 -40.001038c0 -7.0970764 -5.7533264 -12.850372 -12.850403 -12.850372l0 0c7.0970764 0 12.850403 -5.7533264 12.850403 -12.850403l0 -40.97534l0 0c0 -7.0970764 5.7533264 -12.850388 12.850403 -12.850388" fill-rule="evenodd"/><path stroke="#ec6d2d" stroke-width="8.0" stroke-linejoin="round" stroke-linecap="butt" d="m311.77167 363.55905c-7.0970764 0 -12.850403 -5.7533264 -12.850403 -12.850403l0 -40.001038c0 -7.0970764 -5.7533264 -12.850372 -12.850403 -12.850372l0 0c7.0970764 0 12.850403 -5.7533264 12.850403 -12.850403l0 -40.97534l0 0c0 -7.0970764 5.7533264 -12.850388 12.850403 -12.850388" fill-rule="evenodd"/></g></svg>